<svg width="250" height="215" version="1.1" xmlns="http://www.w3.org/2000/svg" desc="Created with imagetracer.js version 1.2.6" ><path fill="rgb(0,0,0)" stroke="rgb(0,0,0)" stroke-width="1" opacity="0" d="M 0 0 L 72 0.5 Q 63.3 3.3 59 10.5 Q 52 20.5 53 38.5 Q 55.6 54.1 63 64 L 78.5 75 Q 83.9 78.1 93.5 77 Q 104.6 74.6 110 66.5 L 115 57.5 L 117 49.5 L 117 35.5 Q 113.2 15.3 99.5 5 L 91 0.5 L 158.5 0 L 158.5 1 L 146 8 Q 139.1 15.9 135 27.5 L 133 36.5 L 133 49.5 Q 135.7 64.3 145.5 72 L 156.5 77 L 165.5 77 Q 178.6 73.6 186 64.5 Q 193 56.5 196 44.5 L 197 27.5 L 195 18.5 L 191 10.5 L 183.5 3 L 178 0.5 L 250 0 L 249.5 77 L 248 71.5 L 244 65 L 236.5 60 L 230.5 58 L 221.5 58 Q 206 61.5 198 72.5 Q 188.5 83 188 102.5 Q 190.2 103.8 189 108.5 L 193 117.5 L 199.5 124 L 209.5 128 L 217.5 128 L 227.5 125 L 241 113.5 Q 247.5 107 249.5 96 L 250 215 L 179 214.5 Q 196.1 210.6 205 198.5 Q 213.2 189.2 213 171.5 Q 209.6 150.4 195.5 140 Q 183.3 132.2 174 121.5 L 163 104.5 L 155.5 97 L 137.5 88 L 132.5 87 L 117.5 87 Q 98 90.5 88 103.5 Q 79.3 120.3 65.5 132 L 47 147.5 L 39 161.5 L 37 177.5 L 39 187.5 L 43 195.5 L 52.5 206 Q 59.8 212.2 71 214.5 L 0 215 L 0.5 95 Q 4 111.5 15.5 120 Q 23.5 128.5 40.5 128 Q 51.6 125.6 57 117.5 Q 62.5 110 62 96.5 Q 58.4 75.6 44.5 65 Q 36.5 57.5 20.5 58 Q 8.9 59.9 4 68.5 L 0.5 77 L 0 0 Z " /><path fill="rgb(0,0,0)" stroke="rgb(0,0,0)" stroke-width="1" opacity="0" d="M 117.5 206 L 132.5 206 L 163 214.5 L 88.5 215 L 88.5 214 L 117.5 206 Z " /><path fill="rgb(242,189,203)" stroke="rgb(242,189,203)" stroke-width="1" opacity="0.47843137254901963" d="M 72.5 0 L 75 0.5 Q 66.6 2.6 62 8.5 Q 52.8 18.3 54 38.5 Q 57.4 59.6 71.5 70 L 84.5 76 L 92.5 76 Q 102.2 73.7 108 67.5 Q 117.6 57.6 116 36.5 Q 112.8 17.2 100.5 7 L 88 0.5 L 90.5 0 Q 101.5 4.5 108 13.5 Q 118.1 25.9 117 49.5 Q 114.1 65.1 103.5 73 L 93.5 77 L 84.5 77 L 74.5 73 L 63 64 L 54 44.5 L 53 27.5 L 59 10.5 L 66.5 3 L 72.5 0 Z " /><path fill="rgb(242,189,203)" stroke="rgb(242,189,203)" stroke-width="1" opacity="0.47843137254901963" d="M 159.5 0 L 163 0.5 Q 150.4 3.4 144 12.5 L 136 27.5 L 134 36.5 L 134 49.5 Q 136.4 62.6 144.5 70 Q 150.9 76.6 164.5 76 Q 179.6 72.6 187 61.5 Q 196.7 49.7 196 27.5 L 191 12.5 L 184.5 5 L 175 0.5 L 177.5 0 Q 186.3 3.3 191 10.5 L 196 21.5 L 197 38.5 L 192 55.5 L 182.5 68 L 169.5 76 L 156.5 77 Q 145.6 74.4 140 66.5 L 135 57.5 L 133 49.5 L 133 36.5 L 136 24.5 L 146 8 L 159.5 0 Z " /><path fill="rgb(242,189,203)" stroke="rgb(242,189,203)" stroke-width="1" opacity="0.47843137254901963" d="M 20.5 58 L 28.5 58 L 35.5 60 Q 45.8 64.2 52 72.5 L 61 90.5 L 62 103.5 L 57 117.5 L 50.5 124 L 40.5 128 L 32.5 128 Q 17 124.5 9 113.5 Q 0.8 105.2 0 89.5 L 1 89.5 L 1 94.5 L 3 101.5 Q 7.3 111.3 14.5 118 L 25.5 125 L 32.5 127 L 40.5 127 Q 49.9 124.9 55 118.5 Q 61.4 111.4 61 97.5 L 59 87.5 L 55 78.5 L 42.5 65 Q 35.1 58.4 20.5 59 Q 11.1 61.1 6 67.5 Q 1 73 0.5 83 L 0 77.5 Q 2.8 67.3 10.5 62 L 20.5 58 Z " /><path fill="rgb(242,189,203)" stroke="rgb(242,189,203)" stroke-width="1" opacity="0.47843137254901963" d="M 221.5 58 L 230.5 58 L 236.5 60 L 244 65 L 248 71.5 L 250 77.5 L 250 82.5 L 249 82.5 L 248 74.5 L 239.5 63 L 230.5 59 L 221.5 59 Q 208.5 62 201 70.5 Q 189.5 81 189 102.5 L 191 111.5 L 198.5 122 L 209.5 127 L 217.5 127 Q 232.3 123.8 240 113.5 Q 247.9 104.9 249.5 90 L 250 95.5 L 245 108.5 L 233.5 121 Q 225.5 128.5 209.5 128 Q 198.4 125.6 193 117.5 L 189 108.5 L 188 97.5 Q 190.5 96 189 90.5 L 195 76.5 L 205.5 65 Q 211.9 59.9 221.5 58 Z " /><path fill="rgb(242,189,203)" stroke="rgb(242,189,203)" stroke-width="1" opacity="0.47843137254901963" d="M 117.5 87 L 132.5 87 L 143.5 90 Q 155.5 95 163 104.5 Q 170.6 120.4 183.5 131 L 203 147.5 L 212 164.5 L 213 178.5 Q 209.9 196.9 197.5 206 L 185.5 213 L 178.5 215 L 163.5 215 L 132.5 206 L 117.5 206 L 87.5 215 L 71.5 215 Q 54.3 210.7 45 198.5 Q 37 189.5 37 172.5 L 39 161.5 L 43 153.5 L 53.5 141 Q 66.3 132.8 76 121.5 L 88 103.5 L 94.5 97 Q 103.5 89.5 117.5 87 Z M 118 88 Q 106 90 98 96 L 87 107 L 74 126 L 58 139 L 44 154 L 39 166 Q 41 171 38 173 Q 38 191 48 201 Q 57 211 73 214 L 91 213 L 117 205 L 134 205 L 166 214 L 182 213 Q 192 210 199 204 L 207 194 L 212 178 L 211 166 L 204 151 Q 194 139 181 130 Q 170 120 163 107 Q 156 96 144 91 L 133 88 L 118 88 Z " /><path fill="rgb(245,188,202)" stroke="rgb(245,188,202)" stroke-width="1" opacity="0.996078431372549" d="M 75.5 0 L 78 0.5 L 75.5 1 L 75.5 0 Z " /><path fill="rgb(245,188,202)" stroke="rgb(245,188,202)" stroke-width="1" opacity="0.996078431372549" d="M 85.5 0 L 88 0.5 L 85.5 1 L 85.5 0 Z " /><path fill="rgb(245,188,202)" stroke="rgb(245,188,202)" stroke-width="1" opacity="0.996078431372549" d="M 68.5 3 L 67 5.5 L 68 7.5 L 66 8 L 65.5 6 L 62 8.5 L 68.5 3 Z " /><path fill="rgb(245,188,202)" stroke="rgb(245,188,202)" stroke-width="1" opacity="0.996078431372549" d="M 96.5 4 L 106 12.5 L 108 15.5 L 106.5 16 L 104 14.5 Q 106.7 12.8 102.5 11 L 101 11.5 L 102 9.5 L 97 7 L 96.5 4 Z " /><path fill="rgb(245,188,202)" stroke="rgb(245,188,202)" stroke-width="1" opacity="0.996078431372549" d="M 153.5 4 L 152.5 6 L 153.5 4 Z " /><path fill="rgb(245,188,202)" stroke="rgb(245,188,202)" stroke-width="1" opacity="0.996078431372549" d="M 184.5 5 L 188.5 10 L 184.5 5 Z " /><path fill="rgb(245,188,202)" stroke="rgb(245,188,202)" stroke-width="1" opacity="0.996078431372549" d="M 149.5 7 L 150.5 9 Q 149.3 6.8 148 9.5 L 148.5 11 L 145 12.5 L 146 14.5 L 141 18.5 Q 142.5 22.9 139.5 22 L 138 22.5 L 143.5 14 L 145 13.5 L 144 12.5 L 149.5 7 Z " /><path fill="rgb(245,188,202)" stroke="rgb(245,188,202)" stroke-width="1" opacity="0.996078431372549" d="M 60.5 11 L 60 12.5 L 59 14.5 L 59.5 16 Q 56.8 14.8 59 13.5 L 60.5 11 Z " /><path fill="rgb(245,188,202)" stroke="rgb(245,188,202)" stroke-width="1" opacity="0.996078431372549" d="M 189.5 11 L 192 14.5 Q 190.8 17.3 189.5 15 L 185 14 L 185.5 12 L 189.5 14 L 190 12.5 L 189.5 11 Z " /><path fill="rgb(245,188,202)" stroke="rgb(245,188,202)" stroke-width="1" opacity="0.996078431372549" d="M 108.5 17 L 109.5 19 L 107 18.5 L 108.5 17 Z " /><path fill="rgb(245,188,202)" stroke="rgb(245,188,202)" stroke-width="1" opacity="0.996078431372549" d="M 188 18 Q 192.1 16.7 191 20 Q 186.9 21.3 188 18 Z " /><path fill="rgb(245,188,202)" stroke="rgb(245,188,202)" stroke-width="1" opacity="0.996078431372549" d="M 192.5 18 L 193.5 20 L 192.5 18 Z " /><path fill="rgb(245,188,202)" stroke="rgb(245,188,202)" stroke-width="1" opacity="0.996078431372549" d="M 56.5 19 L 59 22.5 L 57.5 22 Q 54.9 21.2 56 24.5 L 55 24.5 L 57 20.5 L 56.5 19 Z " /><path fill="rgb(245,188,202)" stroke="rgb(245,188,202)" stroke-width="1" opacity="0.996078431372549" d="M 109.5 20 L 111 20.5 L 108.5 22 L 109.5 20 Z " /><path fill="rgb(245,188,202)" stroke="rgb(245,188,202)" stroke-width="1" opacity="0.996078431372549" d="M 193.5 21 L 195 23.5 L 193 24.5 L 194 22.5 L 193.5 21 Z " /><path fill="rgb(245,188,202)" stroke="rgb(245,188,202)" stroke-width="1" opacity="0.996078431372549" d="M 111.5 24 Q 114.1 23.2 113 26.5 L 114 28.5 Q 111.5 30 115 31.5 L 113.5 34 L 111 27.5 L 112 25.5 L 111.5 24 Z " /><path fill="rgb(245,188,202)" stroke="rgb(245,188,202)" stroke-width="1" opacity="0.996078431372549" d="M 54.5 27 L 56 33.5 L 54.5 39 L 54.5 27 Z " /><path fill="rgb(245,188,202)" stroke="rgb(245,188,202)" stroke-width="1" opacity="0.996078431372549" d="M 136.5 27 L 139 28.5 Q 137.5 31.5 136 28.5 L 136.5 27 Z " /><path fill="rgb(245,188,202)" stroke="rgb(245,188,202)" stroke-width="1" opacity="0.996078431372549" d="M 195.5 27 L 196 38.5 L 195 38.5 L 195.5 27 Z " /><path fill="rgb(245,188,202)" stroke="rgb(245,188,202)" stroke-width="1" opacity="0.996078431372549" d="M 115.5 36 L 116 40.5 L 115 40.5 L 115.5 36 Z " /><path fill="rgb(245,188,202)" stroke="rgb(245,188,202)" stroke-width="1" opacity="0.996078431372549" d="M 134.5 36 L 135 39.5 L 134 39.5 L 134.5 36 Z " /><path fill="rgb(245,188,202)" stroke="rgb(245,188,202)" stroke-width="1" opacity="0.996078431372549" d="M 55.5 42 L 56.5 45 Q 57.8 42.8 59 45.5 L 59 49.5 L 63 56.5 L 63 59.5 L 61 58.5 L 62 56.5 L 60 56.5 L 61 54.5 L 59 54.5 L 59.5 53 Q 57.3 53.8 58 51.5 L 58 49.5 Q 58.7 46.9 56 48 L 56 45.5 L 55.5 42 Z " /><path fill="rgb(245,188,202)" stroke="rgb(245,188,202)" stroke-width="1" opacity="0.996078431372549" d="M 115.5 45 L 116 49.5 L 115 49.5 L 115.5 45 Z " /><path fill="rgb(245,188,202)" stroke="rgb(245,188,202)" stroke-width="1" opacity="0.996078431372549" d="M 134.5 45 L 136 53 Q 138.7 51.9 138 54.5 L 138 56.5 L 137.5 60 L 134 49.5 L 134.5 45 Z " /><path fill="rgb(245,188,202)" stroke="rgb(245,188,202)" stroke-width="1" opacity="0.996078431372549" d="M 193.5 46 L 194 47.5 Q 190.9 49.3 192.5 51 L 191 48.5 L 193.5 46 Z " /><path fill="rgb(245,188,202)" stroke="rgb(245,188,202)" stroke-width="1" opacity="0.996078431372549" d="M 188.5 53 L 191 54.5 L 190 57 L 188 57.5 Q 190.3 58.8 187.5 60 L 187 57.5 L 189 55.5 L 188 54.5 L 188.5 53 Z " /><path fill="rgb(245,188,202)" stroke="rgb(245,188,202)" stroke-width="1" opacity="0.996078431372549" d="M 113.5 55 L 114 57.5 L 108.5 66 L 108 64 L 110 63.5 L 109 60 Q 113.5 61.8 112 56.5 L 113.5 55 Z " /><path fill="rgb(245,188,202)" stroke="rgb(245,188,202)" stroke-width="1" opacity="0.996078431372549" d="M 20.5 59 L 29 59.5 L 20.5 60 L 20.5 59 Z " /><path fill="rgb(245,188,202)" stroke="rgb(245,188,202)" stroke-width="1" opacity="0.996078431372549" d="M 221.5 59 L 231 59.5 L 221.5 60 L 221.5 59 Z " /><path fill="rgb(245,188,202)" stroke="rgb(245,188,202)" stroke-width="1" opacity="0.996078431372549" d="M 64.5 60 L 65 63 L 67 63.5 L 65.5 64 Q 61 62 64.5 60 Z " /><path fill="rgb(245,188,202)" stroke="rgb(245,188,202)" stroke-width="1" opacity="0.996078431372549" d="M 139.5 60 L 141.5 63 L 138 61.5 L 139.5 60 Z " /><path fill="rgb(245,188,202)" stroke="rgb(245,188,202)" stroke-width="1" opacity="0.996078431372549" d="M 186.5 61 L 184.5 64 L 186.5 61 Z " /><path fill="rgb(245,188,202)" stroke="rgb(245,188,202)" stroke-width="1" opacity="0.996078431372549" d="M 37.5 62 L 38 64.5 L 36 63.5 L 37.5 62 Z " /><path fill="rgb(245,188,202)" stroke="rgb(245,188,202)" stroke-width="1" opacity="0.996078431372549" d="M 237.5 62 L 244 67.5 L 240.5 65 L 237.5 62 Z " /><path fill="rgb(245,188,202)" stroke="rgb(245,188,202)" stroke-width="1" opacity="0.996078431372549" d="M 39.5 63 L 46 68.5 L 42 66.5 L 41.5 68 L 41 65 Q 37.8 66 39.5 63 Z " /><path fill="rgb(245,188,202)" stroke="rgb(245,188,202)" stroke-width="1" opacity="0.996078431372549" d="M 210.5 63 L 211.5 65 L 210 64.5 Q 210.8 67.1 207.5 66 L 207.5 68 Q 204.5 66.5 207.5 65 L 210.5 63 Z " /><path fill="rgb(245,188,202)" stroke="rgb(245,188,202)" stroke-width="1" opacity="0.996078431372549" d="M 9.5 64 L 6.5 68 L 9.5 64 Z " /><path fill="rgb(245,188,202)" stroke="rgb(245,188,202)" stroke-width="1" opacity="0.996078431372549" d="M 140.5 64 L 142.5 64 L 144 64.5 L 143 66.5 L 146 68.5 Q 144 72 142 67.5 L 140.5 64 Z " /><path fill="rgb(245,188,202)" stroke="rgb(245,188,202)" stroke-width="1" opacity="0.996078431372549" d="M 182.5 64 L 183 66 L 181 65.5 L 182.5 64 Z " /><path fill="rgb(245,188,202)" stroke="rgb(245,188,202)" stroke-width="1" opacity="0.996078431372549" d="M 39.5 66 L 39 67.5 L 38.5 69 L 38 67.5 L 39.5 66 Z " /><path fill="rgb(245,188,202)" stroke="rgb(245,188,202)" stroke-width="1" opacity="0.996078431372549" d="M 69.5 67 L 73 68 L 75 71.5 L 72.5 70 L 69.5 67 Z " /><path fill="rgb(245,188,202)" stroke="rgb(245,188,202)" stroke-width="1" opacity="0.996078431372549" d="M 106.5 67 L 108 67.5 Q 106 72 104 68.5 L 106.5 67 Z " /><path fill="rgb(245,188,202)" stroke="rgb(245,188,202)" stroke-width="1" opacity="0.996078431372549" d="M 178.5 67 Q 181.5 68.5 178.5 70 L 177 69.5 L 175.5 72 L 175 69.5 L 178.5 67 Z " /><path fill="rgb(245,188,202)" stroke="rgb(245,188,202)" stroke-width="1" opacity="0.996078431372549" d="M 5.5 69 L 6 71 L 4 70.5 L 5.5 69 Z " /><path fill="rgb(245,188,202)" stroke="rgb(245,188,202)" stroke-width="1" opacity="0.996078431372549" d="M 202.5 69 L 201.5 71 L 202.5 69 Z " /><path fill="rgb(245,188,202)" stroke="rgb(245,188,202)" stroke-width="1" opacity="0.996078431372549" d="M 244.5 69 L 245.5 71 L 244.5 69 Z " /><path fill="rgb(245,188,202)" stroke="rgb(245,188,202)" stroke-width="1" opacity="0.996078431372549" d="M 77.5 71 L 80 72.5 Q 80.8 74.8 78.5 74 L 76 72.5 L 77.5 71 Z " /><path fill="rgb(245,188,202)" stroke="rgb(245,188,202)" stroke-width="1" opacity="0.996078431372549" d="M 99.5 71 L 100.5 73 L 92.5 76 L 84.5 76 L 81 75 L 82.5 72 L 85 73.5 L 84.5 75 Q 86.5 72.2 91 73 Q 90 76 93 75 Q 91.9 72.3 94.5 73 L 99.5 71 Z " /><path fill="rgb(245,188,202)" stroke="rgb(245,188,202)" stroke-width="1" opacity="0.996078431372549" d="M 150.5 71 L 151.5 73 L 152.5 71 L 155 74.5 L 153 75 L 152.5 73 L 150.5 73 L 149 72.5 L 150.5 71 Z " /><path fill="rgb(245,188,202)" stroke="rgb(245,188,202)" stroke-width="1" opacity="0.996078431372549" d="M 170.5 71 L 174 72.5 L 167.5 75 L 170.5 71 Z " /><path fill="rgb(245,188,202)" stroke="rgb(245,188,202)" stroke-width="1" opacity="0.996078431372549" d="M 49.5 73 L 53 75.5 L 55 78.5 L 52.5 79 L 51 77.5 L 50 75.5 L 50.5 74 L 49.5 73 Z " /><path fill="rgb(245,188,202)" stroke="rgb(245,188,202)" stroke-width="1" opacity="0.996078431372549" d="M 199.5 73 L 197.5 76 L 199.5 73 Z " /><path fill="rgb(245,188,202)" stroke="rgb(245,188,202)" stroke-width="1" opacity="0.996078431372549" d="M 157.5 75 L 165 75.5 L 157.5 76 L 157.5 75 Z " /><path fill="rgb(245,188,202)" stroke="rgb(245,188,202)" stroke-width="1" opacity="0.996078431372549" d="M 1.5 77 L 2 79.5 L 1 79.5 L 1.5 77 Z " /><path fill="rgb(245,188,202)" stroke="rgb(245,188,202)" stroke-width="1" opacity="0.996078431372549" d="M 3 77 Q 6 76 5 79 Q 2 80 3 77 Z " /><path fill="rgb(245,188,202)" stroke="rgb(245,188,202)" stroke-width="1" opacity="0.996078431372549" d="M 196.5 77 L 195.5 79 L 196.5 77 Z " /><path fill="rgb(245,188,202)" stroke="rgb(245,188,202)" stroke-width="1" opacity="0.996078431372549" d="M 55 82 L 57 82.5 L 55 83.5 L 55 82 Z " /><path fill="rgb(245,188,202)" stroke="rgb(245,188,202)" stroke-width="1" opacity="0.996078431372549" d="M 0.5 83 L 1 88.5 L 0 88.5 L 0.5 83 Z " /><path fill="rgb(245,188,202)" stroke="rgb(245,188,202)" stroke-width="1" opacity="0.996078431372549" d="M 249.5 83 L 250 89.5 L 249 89.5 L 249.5 83 Z " /><path fill="rgb(245,188,202)" stroke="rgb(245,188,202)" stroke-width="1" opacity="0.996078431372549" d="M 192 84 L 194 84.5 L 192 85.5 L 192 84 Z " /><path fill="rgb(245,188,202)" stroke="rgb(245,188,202)" stroke-width="1" opacity="0.996078431372549" d="M 117.5 88 L 123 88.5 L 117.5 89 L 117.5 88 Z " /><path fill="rgb(245,188,202)" stroke="rgb(245,188,202)" stroke-width="1" opacity="0.996078431372549" d="M 129.5 88 Q 133.3 87.3 134 89.5 L 132.5 89 Q 128.5 89.8 129.5 88 Z " /><path fill="rgb(245,188,202)" stroke="rgb(245,188,202)" stroke-width="1" opacity="0.996078431372549" d="M 135.5 89 L 138 89.5 L 135.5 90 L 135.5 89 Z " /><path fill="rgb(245,188,202)" stroke="rgb(245,188,202)" stroke-width="1" opacity="0.996078431372549" d="M 59.5 91 L 60 93.5 L 59 93.5 L 59.5 91 Z " /><path fill="rgb(245,188,202)" stroke="rgb(245,188,202)" stroke-width="1" opacity="0.996078431372549" d="M 190.5 91 L 191 93.5 L 190 93.5 L 190.5 91 Z " /><path fill="rgb(245,188,202)" stroke="rgb(245,188,202)" stroke-width="1" opacity="0.996078431372549" d="M 1.5 94 L 2.5 96 L 1.5 94 Z " /><path fill="rgb(245,188,202)" stroke="rgb(245,188,202)" stroke-width="1" opacity="0.996078431372549" d="M 100.5 94 L 99.5 96 L 100.5 94 Z " /><path fill="rgb(245,188,202)" stroke="rgb(245,188,202)" stroke-width="1" opacity="0.996078431372549" d="M 149.5 94 L 150.5 96 L 149.5 94 Z " /><path fill="rgb(245,188,202)" stroke="rgb(245,188,202)" stroke-width="1" opacity="0.996078431372549" d="M 4.5 95 L 5.5 97 Q 2.7 97.7 4.5 95 Z " /><path fill="rgb(245,188,202)" stroke="rgb(245,188,202)" stroke-width="1" opacity="0.996078431372549" d="M 58.5 95 L 59 97 Q 62.5 95.9 61 103.5 L 59 104.5 L 60 99.5 L 58.5 95 Z " /><path fill="rgb(245,188,202)" stroke="rgb(245,188,202)" stroke-width="1" opacity="0.996078431372549" d="M 97.5 96 L 98.5 98 Q 97.2 95.7 96 98.5 L 95.5 100 L 95 98.5 L 97.5 96 Z " /><path fill="rgb(245,188,202)" stroke="rgb(245,188,202)" stroke-width="1" opacity="0.996078431372549" d="M 152.5 96 L 155.5 100 Q 153.3 100.8 154 98.5 L 151.5 98 L 150 97.5 L 152.5 96 Z " /><path fill="rgb(245,188,202)" stroke="rgb(245,188,202)" stroke-width="1" opacity="0.996078431372549" d="M 2.5 97 L 3.5 99 Q 0.7 99.7 2.5 97 Z " /><path fill="rgb(245,188,202)" stroke="rgb(245,188,202)" stroke-width="1" opacity="0.996078431372549" d="M 189.5 97 L 190 102.5 L 189 102.5 L 189.5 97 Z " /><path fill="rgb(245,188,202)" stroke="rgb(245,188,202)" stroke-width="1" opacity="0.996078431372549" d="M 5.5 99 L 5 102.5 L 4.5 104 L 3 100 L 5.5 99 Z " /><path fill="rgb(245,188,202)" stroke="rgb(245,188,202)" stroke-width="1" opacity="0.996078431372549" d="M 244.5 99 L 247 100.5 L 245.5 104 L 244.5 102 L 246 101.5 L 244.5 99 Z " /><path fill="rgb(245,188,202)" stroke="rgb(245,188,202)" stroke-width="1" opacity="0.996078431372549" d="M 158.5 102 L 163 107.5 L 161 106.5 L 159.5 104 L 157 105.5 Q 156.3 103.3 158.5 104 L 158.5 102 Z " /><path fill="rgb(245,188,202)" stroke="rgb(245,188,202)" stroke-width="1" opacity="0.996078431372549" d="M 89.5 104 L 90 105.5 Q 87.5 107 91 108.5 Q 91.8 110.8 89.5 110 L 89.5 108 L 86 109 L 85.5 111 L 85 109.5 L 89.5 104 Z " /><path fill="rgb(245,188,202)" stroke="rgb(245,188,202)" stroke-width="1" opacity="0.996078431372549" d="M 191.5 105 L 192 106.5 L 190 107.5 L 191.5 105 Z " /><path fill="rgb(245,188,202)" stroke="rgb(245,188,202)" stroke-width="1" opacity="0.996078431372549" d="M 59.5 106 L 60 108.5 L 59 108.5 L 59.5 106 Z " /><path fill="rgb(245,188,202)" stroke="rgb(245,188,202)" stroke-width="1" opacity="0.996078431372549" d="M 6.5 107 L 7.5 109 L 6.5 107 Z " /><path fill="rgb(245,188,202)" stroke="rgb(245,188,202)" stroke-width="1" opacity="0.996078431372549" d="M 191.5 109 L 192 111.5 L 191 111.5 L 191.5 109 Z " /><path fill="rgb(245,188,202)" stroke="rgb(245,188,202)" stroke-width="1" opacity="0.996078431372549" d="M 8.5 110 L 12 112.5 L 10.5 113 L 8.5 110 Z " /><path fill="rgb(245,188,202)" stroke="rgb(245,188,202)" stroke-width="1" opacity="0.996078431372549" d="M 241.5 110 L 240.5 112 L 241.5 110 Z " /><path fill="rgb(245,188,202)" stroke="rgb(245,188,202)" stroke-width="1" opacity="0.996078431372549" d="M 165.5 111 L 166.5 113 Q 163.7 113.7 165.5 111 Z " /><path fill="rgb(245,188,202)" stroke="rgb(245,188,202)" stroke-width="1" opacity="0.996078431372549" d="M 56.5 112 L 57.5 114 L 56 114.5 L 56.5 116 Q 53.9 115.2 55 118.5 L 51 121.5 Q 49.3 116.7 53.5 118 L 53 116.5 L 53.5 115 L 55 115.5 L 56.5 112 Z " /><path fill="rgb(245,188,202)" stroke="rgb(245,188,202)" stroke-width="1" opacity="0.996078431372549" d="M 194.5 113 L 195 114.5 L 193 115.5 L 194.5 113 Z " /><path fill="rgb(245,188,202)" stroke="rgb(245,188,202)" stroke-width="1" opacity="0.996078431372549" d="M 239.5 113 L 234.5 119 L 239.5 113 Z " /><path fill="rgb(245,188,202)" stroke="rgb(245,188,202)" stroke-width="1" opacity="0.996078431372549" d="M 11.5 114 Q 14.1 118.6 21 118 L 20 120.5 L 21.5 123 Q 14.4 119.3 11.5 114 Z " /><path fill="rgb(245,188,202)" stroke="rgb(245,188,202)" stroke-width="1" opacity="0.996078431372549" d="M 166.5 114 L 169 115.5 L 168.5 117 L 171 118.5 L 169 119.5 L 169.5 118 Q 165.8 119.3 167 115.5 L 166.5 114 Z " /><path fill="rgb(245,188,202)" stroke="rgb(245,188,202)" stroke-width="1" opacity="0.996078431372549" d="M 195.5 116 L 199 117.5 L 198 121 L 204 123 L 203.5 125 L 195 118.5 L 195.5 116 Z " /><path fill="rgb(245,188,202)" stroke="rgb(245,188,202)" stroke-width="1" opacity="0.996078431372549" d="M 79.5 118 L 79.5 121 Q 76.5 119.5 79.5 118 Z " /><path fill="rgb(245,188,202)" stroke="rgb(245,188,202)" stroke-width="1" opacity="0.996078431372549" d="M 231.5 120 L 230.5 122 L 231.5 120 Z " /><path fill="rgb(245,188,202)" stroke="rgb(245,188,202)" stroke-width="1" opacity="0.996078431372549" d="M 77.5 121 L 78.5 125 L 75 124 L 74.5 127 L 74 124.5 L 77.5 121 Z " /><path fill="rgb(245,188,202)" stroke="rgb(245,188,202)" stroke-width="1" opacity="0.996078431372549" d="M 171.5 121 L 176 124.5 L 173.5 125 L 172 123.5 L 172.5 122 L 171.5 121 Z " /><path fill="rgb(245,188,202)" stroke="rgb(245,188,202)" stroke-width="1" opacity="0.996078431372549" d="M 30.5 124 L 33 125.5 Q 32.1 122.5 36.5 124 L 38.5 125 L 40 124.5 L 40.5 126 L 42 125.5 L 40.5 127 L 32.5 127 Q 31 123.5 29.5 126 L 28 125.5 L 30.5 124 Z M 35 125 L 35 126 L 37 126 L 35 125 Z " /><path fill="rgb(245,188,202)" stroke="rgb(245,188,202)" stroke-width="1" opacity="0.996078431372549" d="M 43.5 124 L 44.5 126 Q 41.7 126.7 43.5 124 Z " /><path fill="rgb(245,188,202)" stroke="rgb(245,188,202)" stroke-width="1" opacity="0.996078431372549" d="M 218 124 Q 221 123 220 126 Q 217 128 209.5 127 L 208.5 125 L 218 126 L 218 124 Z " /><path fill="rgb(245,188,202)" stroke="rgb(245,188,202)" stroke-width="1" opacity="0.996078431372549" d="M 72.5 127 L 73.5 129 L 72.5 127 Z " /><path fill="rgb(245,188,202)" stroke="rgb(245,188,202)" stroke-width="1" opacity="0.996078431372549" d="M 68.5 130 L 71 133.5 L 69.5 133 L 67.5 132 L 66.5 135 L 65 133.5 L 68.5 130 Z " /><path fill="rgb(245,188,202)" stroke="rgb(245,188,202)" stroke-width="1" opacity="0.996078431372549" d="M 181.5 130 L 184.5 134 L 181 132 L 181.5 130 Z " /><path fill="rgb(245,188,202)" stroke="rgb(245,188,202)" stroke-width="1" opacity="0.996078431372549" d="M 186.5 134 L 189.5 138 L 187 137.5 Q 187.8 135.3 185.5 136 L 186.5 134 Z " /><path fill="rgb(245,188,202)" stroke="rgb(245,188,202)" stroke-width="1" opacity="0.996078431372549" d="M 62.5 135 L 63 136.5 L 61 140 L 54.5 143 L 57.5 139 Q 60.8 140.1 60 137.5 L 62.5 135 Z " /><path fill="rgb(245,188,202)" stroke="rgb(245,188,202)" stroke-width="1" opacity="0.996078431372549" d="M 192.5 139 L 195.5 143 Q 191.8 144.3 193 140.5 L 192.5 139 Z " /><path fill="rgb(245,188,202)" stroke="rgb(245,188,202)" stroke-width="1" opacity="0.996078431372549" d="M 53.5 144 Q 55.8 143.3 55 145.5 L 53.5 144 Z " /><path fill="rgb(245,188,202)" stroke="rgb(245,188,202)" stroke-width="1" opacity="0.996078431372549" d="M 197.5 144 L 199 146.5 L 197 145.5 L 197.5 144 Z " /><path fill="rgb(245,188,202)" stroke="rgb(245,188,202)" stroke-width="1" opacity="0.996078431372549" d="M 50.5 146 Q 53.1 145.3 52 148 L 49 148 Q 50.1 150.7 47.5 150 L 50.5 146 Z " /><path fill="rgb(245,188,202)" stroke="rgb(245,188,202)" stroke-width="1" opacity="0.996078431372549" d="M 200.5 147 L 203.5 151 Q 201.3 151.8 202 149.5 L 200 149.5 L 200.5 147 Z " /><path fill="rgb(245,188,202)" stroke="rgb(245,188,202)" stroke-width="1" opacity="0.996078431372549" d="M 45.5 152 L 44.5 154 L 45.5 152 Z " /><path fill="rgb(245,188,202)" stroke="rgb(245,188,202)" stroke-width="1" opacity="0.996078431372549" d="M 203.5 152 L 206 153.5 L 204.5 153 L 203.5 152 Z " /><path fill="rgb(245,188,202)" stroke="rgb(245,188,202)" stroke-width="1" opacity="0.996078431372549" d="M 206.5 155 L 209 160.5 L 208 160.5 Q 208.7 157.9 206 159 L 206.5 155 Z " /><path fill="rgb(245,188,202)" stroke="rgb(245,188,202)" stroke-width="1" opacity="0.996078431372549" d="M 42.5 157 L 43 161 Q 40.3 162.1 41 159.5 L 42.5 157 Z " /><path fill="rgb(245,188,202)" stroke="rgb(245,188,202)" stroke-width="1" opacity="0.996078431372549" d="M 207 162 Q 211.1 160.3 210 164.5 L 211 167.5 L 210 167.5 L 208.5 164 L 207 164.5 L 207 162 Z " /><path fill="rgb(245,188,202)" stroke="rgb(245,188,202)" stroke-width="1" opacity="0.996078431372549" d="M 39.5 165 L 41 168.5 L 39 167.5 L 39.5 165 Z " /><path fill="rgb(245,188,202)" stroke="rgb(245,188,202)" stroke-width="1" opacity="0.996078431372549" d="M 39.5 171 L 40 178.5 L 39 178.5 L 38 172.5 L 39.5 171 Z " /><path fill="rgb(245,188,202)" stroke="rgb(245,188,202)" stroke-width="1" opacity="0.996078431372549" d="M 211.5 171 L 212 177.5 L 211 177.5 L 211.5 171 Z " /><path fill="rgb(245,188,202)" stroke="rgb(245,188,202)" stroke-width="1" opacity="0.996078431372549" d="M 39.5 181 L 40 183.5 L 39 183.5 L 39.5 181 Z " /><path fill="rgb(245,188,202)" stroke="rgb(245,188,202)" stroke-width="1" opacity="0.996078431372549" d="M 210.5 181 L 211 183.5 L 210 183.5 L 210.5 181 Z " /><path fill="rgb(245,188,202)" stroke="rgb(245,188,202)" stroke-width="1" opacity="0.996078431372549" d="M 42.5 183 L 44 190.5 L 45.5 192 L 48 193.5 Q 48.8 197.3 46.5 198 L 43 193.5 L 43.5 192 Q 41.3 192.8 42 190.5 L 40 185 Q 42.8 186 42.5 183 Z " /><path fill="rgb(245,188,202)" stroke="rgb(245,188,202)" stroke-width="1" opacity="0.996078431372549" d="M 206 186 L 208 186.5 L 207.5 188 Q 209.8 187.3 209 189.5 L 206.5 194 L 206 191.5 L 207 188.5 L 206 186 Z " /><path fill="rgb(245,188,202)" stroke="rgb(245,188,202)" stroke-width="1" opacity="0.996078431372549" d="M 204.5 193 L 205 196.5 L 203 197.5 L 204.5 193 Z " /><path fill="rgb(245,188,202)" stroke="rgb(245,188,202)" stroke-width="1" opacity="0.996078431372549" d="M 201.5 198 L 202 199.5 L 198.5 204 L 193.5 205 L 194.5 203 L 199 203 L 199 199 L 200.5 199 L 201.5 198 Z " /><path fill="rgb(245,188,202)" stroke="rgb(245,188,202)" stroke-width="1" opacity="0.996078431372549" d="M 48 199 L 50 199.5 L 49.5 201 L 52 202.5 L 50.5 203 L 48 199 Z " /><path fill="rgb(245,188,202)" stroke="rgb(245,188,202)" stroke-width="1" opacity="0.996078431372549" d="M 54.5 201 L 55 202.5 L 54.5 204 L 56 204.5 L 55.5 207 L 53 203.5 L 54.5 201 Z " /><path fill="rgb(245,188,202)" stroke="rgb(245,188,202)" stroke-width="1" opacity="0.996078431372549" d="M 111.5 203 L 112.5 205 L 116 204 Q 117.3 207.7 111.5 206 L 109.5 207 L 109.5 206 Q 112.4 206.7 111.5 203 Z " /><path fill="rgb(245,188,202)" stroke="rgb(245,188,202)" stroke-width="1" opacity="0.996078431372549" d="M 120.5 204 L 130 204.5 L 120.5 205 L 120.5 204 Z " /><path fill="rgb(245,188,202)" stroke="rgb(245,188,202)" stroke-width="1" opacity="0.996078431372549" d="M 134 204 L 138 205.5 L 134 206 L 134 204 Z " /><path fill="rgb(245,188,202)" stroke="rgb(245,188,202)" stroke-width="1" opacity="0.996078431372549" d="M 139 204 L 141 204.5 L 139.5 207 L 139 204 Z " /><path fill="rgb(245,188,202)" stroke="rgb(245,188,202)" stroke-width="1" opacity="0.996078431372549" d="M 195.5 205 L 194.5 207 L 195.5 205 Z " /><path fill="rgb(245,188,202)" stroke="rgb(245,188,202)" stroke-width="1" opacity="0.996078431372549" d="M 144.5 206 L 143.5 208 L 142 207.5 L 144.5 206 Z " /><path fill="rgb(245,188,202)" stroke="rgb(245,188,202)" stroke-width="1" opacity="0.996078431372549" d="M 191.5 206 Q 194.5 207.5 191.5 209 L 191.5 206 Z " /><path fill="rgb(245,188,202)" stroke="rgb(245,188,202)" stroke-width="1" opacity="0.996078431372549" d="M 59.5 207 L 62 207.5 L 61.5 210 L 59 209 L 59.5 207 Z " /><path fill="rgb(245,188,202)" stroke="rgb(245,188,202)" stroke-width="1" opacity="0.996078431372549" d="M 102.5 207 Q 104.8 206.3 104 208.5 Q 102.3 206.9 100.5 210 L 99.5 209 L 97.5 211 Q 94.9 211.7 96 209 L 102.5 207 Z " /><path fill="rgb(245,188,202)" stroke="rgb(245,188,202)" stroke-width="1" opacity="0.996078431372549" d="M 105.5 207 L 108 207.5 L 105.5 208 L 105.5 207 Z " /><path fill="rgb(245,188,202)" stroke="rgb(245,188,202)" stroke-width="1" opacity="0.996078431372549" d="M 146 207 L 153.5 208 L 155.5 210 L 158.5 209 L 160 212 L 162.5 211 L 163 213 L 146 209 L 146 207 Z " /><path fill="rgb(245,188,202)" stroke="rgb(245,188,202)" stroke-width="1" opacity="0.996078431372549" d="M 188.5 208 L 189.5 210 L 186.5 211 L 188.5 208 Z " /><path fill="rgb(245,188,202)" stroke="rgb(245,188,202)" stroke-width="1" opacity="0.996078431372549" d="M 63.5 209 L 65.5 210 Q 66.8 207.8 68 210.5 Q 67.2 213.1 70.5 212 L 70.5 213 L 63 211 L 63.5 209 Z " /><path fill="rgb(245,188,202)" stroke="rgb(245,188,202)" stroke-width="1" opacity="0.996078431372549" d="M 72 211 L 80 213.5 L 77.5 214 L 75.5 214 Q 70.3 215.5 72 211 Z " /><path fill="rgb(245,188,202)" stroke="rgb(245,188,202)" stroke-width="1" opacity="0.996078431372549" d="M 80.5 211 L 82.5 212 L 85 211 Q 86.6 215.9 81 214 L 80.5 211 Z " /><path fill="rgb(245,188,202)" stroke="rgb(245,188,202)" stroke-width="1" opacity="0.996078431372549" d="M 86.5 211 L 91 212.5 L 86 213 L 86.5 211 Z " /><path fill="rgb(245,188,202)" stroke="rgb(245,188,202)" stroke-width="1" opacity="0.996078431372549" d="M 164.5 211 L 165 213 L 169.5 211 L 171.5 211 L 174.5 213 L 176.5 212 L 177.5 214 L 171.5 213 Q 170.3 215.3 165.5 214 L 164.5 211 Z " /><path fill="rgb(245,188,202)" stroke="rgb(245,188,202)" stroke-width="1" opacity="0.996078431372549" d="M 181.5 211 L 182 213 L 180 212.5 L 181.5 211 Z " /><path fill="rgb(245,188,203)" stroke="rgb(245,188,203)" stroke-width="1" opacity="1" d="M 78.5 0 Q 90.8 -0.3 97 5.5 Q 96.3 7.8 98.5 7 L 102 9.5 L 105 13.5 L 104.5 15 L 108 16 L 110 19.5 L 109.5 21 Q 111.8 20.3 111 22.5 L 112 25.5 L 111 28.5 L 114 29.5 L 113 33.5 L 115 33.5 L 116 44.5 L 112 60 Q 107.9 58.3 109 62.5 L 109.5 64 L 108 64 Q 109.5 67.8 106.5 67 L 104 68.5 Q 106.3 69.8 103.5 71 L 100.5 72 L 98.5 72 L 93 73 Q 94 76 91 75 Q 92.3 71.7 87.5 73 L 84.5 75 L 84.5 73 L 82.5 72 L 80 73.5 L 78.5 71 L 75.5 72 L 73 68 Q 68.1 68.1 66 64.5 L 66.5 63 Q 63.9 63.8 65 60.5 L 63 60.5 L 62.5 56 L 61.5 58 L 59 53.5 L 60 50.5 L 57.5 44 L 56 44.5 L 55 34.5 L 55 32.5 Q 54.3 25.5 56 22 L 58.5 23 L 59 21.5 L 56 20.5 Q 58.8 11.3 65.5 6 L 66 8 L 68 7.5 L 67 5.5 L 71.5 2 L 78.5 0 Z " /><path fill="rgb(245,188,203)" stroke="rgb(245,188,203)" stroke-width="1" opacity="1" d="M 165.5 0 L 177 1 L 177.5 3 L 179.5 3 Q 186.4 4.6 189 10.5 L 190 13.5 L 188.5 13 L 185.5 12 L 185 14 L 190.5 16 L 192 15.5 L 193 17.5 L 192 18.5 L 194 22.5 L 195 24.5 L 195 41.5 L 191 49.5 L 193 49.5 L 191 54 L 188.5 53 L 188 54.5 L 189 57.5 L 187 59.5 L 183.5 65 Q 182.2 62.8 181 65.5 Q 183.3 66.8 180.5 68 L 178.5 67 L 175 69.5 Q 176.1 72.8 173.5 72 L 170.5 71 L 166.5 75 L 155.5 75 L 151 72.5 L 150.5 71 L 148.5 72 L 145 69.5 L 145.5 68 L 143 66.5 L 144 64.5 L 142.5 64 Q 141.3 66.3 140 63.5 L 142 62.5 L 138 60.5 L 137 55.5 L 138 53 Q 135 54.3 136 50.5 L 134 40.5 L 136.5 29 Q 137.7 31.3 139 28.5 L 137 28 Q 135.9 25.3 138.5 26 L 138 24.5 L 139.5 22 Q 142.5 22.9 141 18.5 L 146 14.5 L 145.5 13 L 144 13.5 L 149 10.5 L 148 9.5 L 151.5 6 L 165.5 0 Z M 188 18 Q 187 21 191 20 Q 192 17 188 18 Z " /><path fill="rgb(245,188,203)" stroke="rgb(245,188,203)" stroke-width="1" opacity="1" d="M 18.5 60 Q 31 58 37 62.5 Q 34.8 63.7 37.5 65 L 38.5 63 L 39 65 Q 42 63.8 41 67.5 L 42 67.5 L 42.5 66 L 50 72.5 L 49.5 74 L 52 75.5 L 51 77.5 Q 53 75.8 55 79.5 L 56 81.5 L 55 83.5 L 57 83.5 L 60 96.5 L 59 98.5 L 60 103.5 L 59 106.5 L 57.5 113 L 56 112.5 L 57 114.5 L 55 114.5 L 56 116.5 L 53 115.5 L 54 117.5 L 51 118 Q 52 121.8 49.5 123 L 44.5 125 L 43 124.5 L 42.5 126 L 40 125.5 L 39.5 124 L 34.5 126 L 34.5 125 L 37 124.5 L 33 124 L 32.5 126 L 29.5 125 Q 22.9 124.6 20 120.5 L 21 118 Q 13.7 118.6 11 113.5 Q 13.3 112.3 10.5 111 L 8 109.5 L 5 102.5 Q 7.3 101.2 4.5 100 L 3 99.5 L 4 98.5 L 2 96.5 L 3 95.5 L 1 91.5 L 1 80.5 L 3 73 L 5 72.5 L 4.5 71 Q 7.1 71.8 6 68.5 L 11.5 63 L 13 63.5 Q 12.3 61.3 14.5 62 L 18.5 60 Z M 3 77 Q 2 80 5 79 Q 6 76 3 77 Z M 5 95 Q 3 98 6 97 L 5 95 Z " /><path fill="rgb(245,188,203)" stroke="rgb(245,188,203)" stroke-width="1" opacity="1" d="M 218.5 60 L 232.5 60 L 244 68.5 L 249 79.5 L 249 93.5 L 246.5 100 L 244.5 99 L 245.5 102 L 244 102.5 L 245 104.5 Q 240.4 113.9 232.5 120 L 229.5 122 L 228 121.5 Q 228.8 123.8 226.5 123 L 220.5 126 L 220 124 Q 216.9 123.3 217.5 126 L 210.5 126 L 208.5 125 L 206.5 125 L 204 125 Q 205.3 122 201.5 123 L 198 121 L 199 117.5 L 197.5 116 Q 195.8 119.7 194 116.5 L 191 107.5 L 192 105.5 L 190 105.5 Q 188.4 91.4 194 84.5 L 193.5 83 L 195 82.5 L 195 80.5 L 205.5 67 L 210 66 L 211.5 63 L 218.5 60 Z " /><path fill="rgb(245,188,203)" stroke="rgb(245,188,203)" stroke-width="1" opacity="1" d="M 123.5 88 Q 130.2 87.3 133.5 90 L 135.5 90 L 139.5 90 L 152 96.5 L 150 97.5 L 152.5 99 L 154 98.5 Q 153.2 101.1 156.5 100 L 162.5 108 Q 164.8 107.3 164 109.5 L 165 113 L 167 113.5 L 167 115.5 Q 165.8 119.3 169.5 118 Q 173.2 120 171.5 122 L 178 127.5 L 178.5 130 Q 179.8 127.7 181 130.5 Q 180.3 132.8 182.5 132 L 186 134.5 L 185.5 136 Q 187.8 135.3 187 137.5 L 189.5 138 L 193 140.5 L 193 143 Q 198.2 140.9 197 145.5 L 200 146.5 L 200.5 150 L 202 149.5 Q 201.3 151.8 203.5 151 L 203.5 153 L 206 154.5 L 206 159 Q 208.7 157.9 208 160.5 L 208.5 162 Q 205.9 161.2 207 164.5 L 210 165.5 Q 212.5 171 211 180.5 L 209 188 Q 206 186.8 207 190.5 L 205.5 195 L 204.5 193 L 202.5 199 L 200.5 199 L 199 199 L 199 203 L 194.5 203 L 194.5 204 L 197 204.5 L 189.5 209 L 188.5 208 L 185.5 211 L 182.5 212 Q 181 209.5 179.5 213 L 175.5 212 L 171.5 214 L 171.5 213 Q 174.1 213.7 173 211 L 169.5 213 L 167.5 212 L 165 213 L 164.5 211 L 163.5 213 L 162.5 211 L 160 212 L 158.5 209 L 155.5 210 L 153.5 208 L 146.5 207 L 144.5 208 L 140 207 L 141 204.5 L 139 204 L 138.5 206 L 134.5 204 L 132.5 204 L 130.5 205 L 129.5 204 L 120.5 204 L 118.5 204 L 116.5 205 L 113.5 204 L 112 204.5 L 111.5 203 L 111 206 L 104.5 208 L 102.5 207 L 102.5 209 L 99.5 208 L 99.5 210 L 96 209 Q 97.3 212 93.5 211 Q 92.2 213.2 87.5 212 L 86 211.5 L 85.5 213 L 85 211 L 81 212 L 80.5 214 L 77.5 213 L 76 213.5 L 76.5 212 L 72 211 L 71.5 213 L 68 212 L 66.5 209 L 64.5 210 L 62 209.5 L 61.5 207 L 57.5 207 L 55 205.5 L 55.5 204 L 53.5 203 L 52 203.5 L 50.5 201 L 49 200.5 L 49.5 199 Q 46.2 200.1 47 197.5 L 48 193.5 L 44 190.5 L 42.5 183 L 42 185 Q 38.7 186.3 40 181.5 L 39 179.5 Q 41.7 177.8 40 171.5 L 39 168.5 L 41 161 Q 44.7 162.3 43 156.5 L 47.5 150 Q 50.1 150.7 49 148 L 52 148 L 52 146.5 Q 49.2 144.8 53.5 143 L 61 140 L 64.5 134 L 66.5 135 L 67.5 132 L 70.5 134 L 71 132.5 L 69.5 130 L 72 129.5 L 71.5 128 Q 73.8 128.8 73 126.5 L 75 126.5 Q 73.9 123.2 76.5 124 L 78.5 125 L 77 122.5 L 78 121.5 L 83.5 113 L 85 112.5 L 84.5 111 L 87.5 109 L 90 107.5 L 90 105.5 L 91.5 102 Q 93.8 102.8 93 100.5 L 96 99.5 L 98.5 96 L 101.5 94 L 103 94.5 Q 102.3 92.3 104.5 93 L 110.5 90 L 122.5 89 L 123.5 88 Z M 157 104 L 157 106 L 159 105 L 157 104 Z M 91 108 L 89 110 L 91 110 L 91 108 Z M 54 144 L 55 146 Q 56 143 54 144 Z M 206 186 L 206 188 L 208 187 L 206 186 Z " /></svg>